<?xml version="1.0" encoding="utf-8"?>
<!-- Generator: Adobe Illustrator 17.0.0, SVG Export Plug-In . SVG Version: 6.00 Build 0)  -->
<!DOCTYPE svg PUBLIC "-//W3C//DTD SVG 1.1//EN" "http://www.w3.org/Graphics/SVG/1.1/DTD/svg11.dtd">
<svg version="1.1" id="Layer_1" xmlns="http://www.w3.org/2000/svg" xmlns:xlink="http://www.w3.org/1999/xlink" x="0px" y="0px"
	 width="800px" height="200px" viewBox="0 0 800 200" enable-background="new 0 0 800 200" xml:space="preserve">
<g>
	<g>
		<path d="M203.426,60.021c-4.746,2.103-9.839,3.529-15.189,4.166c5.463-3.272,9.645-8.461,11.627-14.625
			c-5.125,3.03-10.781,5.23-16.809,6.422c-4.827-5.149-11.692-8.356-19.307-8.356c-14.609,0-26.454,11.845-26.454,26.446
			c0,2.071,0.234,4.093,0.685,6.027c-21.982-1.104-41.474-11.636-54.519-27.639c-2.28,3.9-3.578,8.445-3.578,13.296
			c0,9.178,4.674,17.276,11.765,22.014c-4.335-0.145-8.413-1.338-11.982-3.32v0.33c0,12.812,9.122,23.505,21.216,25.938
			c-2.216,0.596-4.553,0.927-6.97,0.927c-1.708,0-3.36-0.169-4.98-0.492c3.368,10.516,13.134,18.162,24.706,18.372
			c-9.049,7.091-20.459,11.305-32.852,11.305c-2.135,0-4.239-0.129-6.309-0.363c11.708,7.518,25.608,11.902,40.547,11.902
			c48.661,0,75.261-40.306,75.261-75.261l-0.089-3.425C195.393,69.98,199.889,65.323,203.426,60.021z"/>
	</g>
</g>
<path d="M348.911,47.75C331.862,47.75,318,61.612,318,78.661v42.8c0,17.049,13.862,30.911,30.911,30.911h42.8
	c17.049,0,30.911-13.862,30.911-30.911v-42.8c0-17.049-13.862-30.911-30.911-30.911C391.711,47.75,348.911,47.75,348.911,47.75z
	 M398.844,66.772c2.616,0,4.756,2.14,4.756,4.756s-2.14,4.756-4.756,4.756s-4.756-2.14-4.756-4.756S396.229,66.772,398.844,66.772z
	 M370.311,73.906c14.433,0,26.156,11.722,26.156,26.156s-11.722,26.156-26.156,26.156s-26.156-11.722-26.156-26.156
	S355.878,73.906,370.311,73.906z M370.311,78.661c-11.794,0-21.4,9.606-21.4,21.4s9.606,21.4,21.4,21.4s21.4-9.606,21.4-21.4
	S382.105,78.661,370.311,78.661z"/>
<path d="M565.931,59.454c0,6.26-5.031,11.332-11.241,11.332s-11.241-5.072-11.241-11.332c0-6.255,5.031-11.332,11.241-11.332
	C560.9,48.122,565.931,53.199,565.931,59.454z M566.022,79.85h-22.663v72.522h22.663V79.85z M602.201,79.85h-22.518v72.522h22.523
	v-38.069c0-21.167,27.327-22.899,27.327,0v38.069h22.609v-45.92c0-35.717-40.44-34.416-49.94-16.834
	C602.201,89.618,602.201,79.85,602.201,79.85z"/>
</svg>
